# xmcd CD database file
#
# Track frame offsets:
#	150
#	21360
#	41680
#	64120
#	84240
#	105782
#	126617
#	149515
#	170770
#	189592
#
# Disc length: 2818 seconds
#
# Revision: 1
# Processed by: cddbd v1.5.2PL0 Copyright (c) Steve Scherf et al.
# Submitted via: CDex 1.51
#
DISCID=8b0b000a
DTITLE=Charlie Sexton - Charlie Sexton
DYEAR=1900
DGENRE=Rock
TTITLE0=Don't Look Back
TTITLE1=Seems So Wrong
TTITLE2=Blowing Up Detroit
TTITLE3=I Can't Cry
TTITLE4=While You Sleep
TTITLE5=For All We Know
TTITLE6=Battle Hymn Of The Republic
TTITLE7=Question This
TTITLE8=Save Yourself
TTITLE9=Cry Little Sister
EXTD=
EXTT0=
EXTT1=
EXTT2=
EXTT3=
EXTT4=
EXTT5=
EXTT6=
EXTT7=
EXTT8=
EXTT9=
PLAYORDER=
